<svg width="25" height="24" viewBox="0 0 25 24" fill="none" xmlns="http://www.w3.org/2000/svg">
<path d="M9.5 15L15.5 9M11.5 6.00031L11.963 5.46431C12.9008 4.52663 14.1727 3.99991 15.4989 4C16.825 4.00009 18.0968 4.527 19.0345 5.46481C19.9722 6.40261 20.4989 7.6745 20.4988 9.00066C20.4987 10.3268 19.9718 11.5986 19.034 12.5363L18.5 13.0003M13.4999 18L13.1029 18.534C12.1541 19.4722 10.8737 19.9984 9.5394 19.9984C8.20511 19.9984 6.92465 19.4722 5.9759 18.534C5.50825 18.0716 5.13699 17.521 4.88361 16.9141C4.63023 16.3073 4.49976 15.6561 4.49976 14.9985C4.49976 14.3408 4.63023 13.6897 4.88361 13.0829C5.13699 12.476 5.50825 11.9254 5.9759 11.463L6.4999 11" stroke="black" stroke-width="2" stroke-linecap="round" stroke-linejoin="round"/>
</svg>
