<svg width="28" height="28" viewBox="0 0 28 28" fill="none" xmlns="http://www.w3.org/2000/svg">
<path d="M0 14C0 6.26801 6.26801 0 14 0C21.732 0 28 6.26801 28 14C28 21.732 21.732 28 14 28C6.26801 28 0 21.732 0 14Z" fill="black" fill-opacity="0.48"/>
<path fill-rule="evenodd" clip-rule="evenodd" d="M13.9956 15.056L18.2363 19.297C18.3777 19.4335 18.5671 19.5091 18.7636 19.5074C18.9602 19.5057 19.1482 19.4268 19.2872 19.2878C19.4262 19.1488 19.505 18.9608 19.5067 18.7642C19.5084 18.5677 19.4328 18.3783 19.2963 18.2369L15.0556 13.9959L19.2963 9.75489C19.4328 9.61349 19.5084 9.42412 19.5067 9.22755C19.505 9.03099 19.4262 8.84295 19.2872 8.70395C19.1482 8.56496 18.9602 8.48611 18.7636 8.4844C18.5671 8.4827 18.3777 8.55826 18.2363 8.69482L13.9956 12.9358L9.75491 8.69482C9.61289 8.56164 9.42463 8.48893 9.22996 8.49209C9.03529 8.49525 8.84949 8.57403 8.71187 8.71176C8.57425 8.84949 8.49561 9.03536 8.49258 9.23004C8.48956 9.42473 8.56239 9.61295 8.69567 9.75489L12.9356 13.9959L8.69492 18.2369C8.62332 18.306 8.56621 18.3888 8.52693 18.4802C8.48764 18.5717 8.46696 18.6701 8.46609 18.7696C8.46523 18.8692 8.48419 18.9679 8.52189 19.06C8.55958 19.1522 8.61524 19.2359 8.68563 19.3062C8.75601 19.3766 8.83971 19.4323 8.93184 19.47C9.02397 19.5077 9.12268 19.5267 9.22222 19.5258C9.32175 19.5249 9.42012 19.5043 9.51158 19.465C9.60304 19.4257 9.68576 19.3686 9.75491 19.297L13.9956 15.056Z" fill="white"/>
</svg>
