<svg width="40" height="40" viewBox="0 0 40 40" fill="none" xmlns="http://www.w3.org/2000/svg">
<path d="M20 26C16.6863 26 14 23.3137 14 20C14 16.6863 16.6863 14 20 14C23.3137 14 26 16.6863 26 20C26 23.3137 23.3137 26 20 26Z" fill="#212B36"/>
<path fill-rule="evenodd" clip-rule="evenodd" d="M10 20C10 25.5228 14.4772 30 20 30C25.5228 30 30 25.5228 30 20C30 14.4772 25.5228 10 20 10C14.4772 10 10 14.4772 10 20ZM11.5 20C11.5 15.3056 15.3056 11.5 20 11.5C24.6944 11.5 28.5 15.3056 28.5 20C28.5 24.6944 24.6944 28.5 20 28.5C15.3056 28.5 11.5 24.6944 11.5 20Z" fill="#212B36"/>
</svg>
