<svg width="58" height="34" viewBox="0 0 58 34" fill="none" xmlns="http://www.w3.org/2000/svg">
<rect x="0.25" y="0.25" width="57.5" height="33.5" rx="16.75" stroke="black" stroke-opacity="0.1" stroke-width="0.5"/>
<path d="M20 12C20 11.4696 20.2107 10.9609 20.5858 10.5858C20.9609 10.2107 21.4696 10 22 10H36C36.5304 10 37.0391 10.2107 37.4142 10.5858C37.7893 10.9609 38 11.4696 38 12M20 12V22C20 22.5304 20.2107 23.0391 20.5858 23.4142C20.9609 23.7893 21.4696 24 22 24H36C36.5304 24 37.0391 23.7893 37.4142 23.4142C37.7893 23.0391 38 22.5304 38 22V12M20 12L29 18L38 12" stroke="black" stroke-width="2" stroke-linecap="round" stroke-linejoin="round"/>
</svg>
