<svg width="25" height="25" viewBox="0 0 25 25" fill="none" xmlns="http://www.w3.org/2000/svg">
<path d="M10.5 12.5C10.5 13.0304 10.7107 13.5391 11.0858 13.9142C11.4609 14.2893 11.9696 14.5 12.5 14.5C13.0304 14.5 13.5391 14.2893 13.9142 13.9142C14.2893 13.5391 14.5 13.0304 14.5 12.5C14.5 11.9696 14.2893 11.4609 13.9142 11.0858C13.5391 10.7107 13.0304 10.5 12.5 10.5C11.9696 10.5 11.4609 10.7107 11.0858 11.0858C10.7107 11.4609 10.5 11.9696 10.5 12.5Z" stroke="black" stroke-width="2" stroke-linecap="round" stroke-linejoin="round"/>
<path d="M21.5 12.5C19.1 16.5 16.1 18.5 12.5 18.5C8.9 18.5 5.9 16.5 3.5 12.5C5.9 8.5 8.9 6.5 12.5 6.5C16.1 6.5 19.1 8.5 21.5 12.5Z" stroke="black" stroke-width="2" stroke-linecap="round" stroke-linejoin="round"/>
</svg>
