<svg width="14" height="14" viewBox="0 0 14 14" fill="none" xmlns="http://www.w3.org/2000/svg">
<path d="M5.83333 7C5.83333 7.30942 5.95625 7.60617 6.17504 7.82496C6.39383 8.04375 6.69058 8.16667 7 8.16667C7.30942 8.16667 7.60617 8.04375 7.82496 7.82496C8.04375 7.60617 8.16667 7.30942 8.16667 7C8.16667 6.69058 8.04375 6.39383 7.82496 6.17504C7.60617 5.95625 7.30942 5.83333 7 5.83333C6.69058 5.83333 6.39383 5.95625 6.17504 6.17504C5.95625 6.39383 5.83333 6.69058 5.83333 7Z" stroke="black" stroke-opacity="0.5" stroke-width="1.5" stroke-linecap="round" stroke-linejoin="round"/>
<path d="M12.25 7C10.85 9.33333 9.1 10.5 7 10.5C4.9 10.5 3.15 9.33333 1.75 7C3.15 4.66667 4.9 3.5 7 3.5C9.1 3.5 10.85 4.66667 12.25 7Z" stroke="black" stroke-opacity="0.5" stroke-width="1.5" stroke-linecap="round" stroke-linejoin="round"/>
</svg>
