<svg width="15" height="14" viewBox="0 0 15 14" fill="none" xmlns="http://www.w3.org/2000/svg">
<path fill-rule="evenodd" clip-rule="evenodd" d="M1.56562 1.55556C1.13784 1.55556 0.787842 1.20556 0.787842 0.777778C0.787842 0.35 1.13784 0 1.56562 0H14.0101C14.4378 0 14.7878 0.35 14.7878 0.777778C14.7878 1.20556 14.4378 1.55556 14.0101 1.55556H1.56562ZM9.3434 3.11111H1.56562C1.13784 3.11111 0.787842 3.46111 0.787842 3.88889C0.787842 4.31667 1.13784 4.66667 1.56562 4.66667H9.3434C9.77118 4.66667 10.1212 4.31667 10.1212 3.88889C10.1212 3.46111 9.77118 3.11111 9.3434 3.11111ZM9.3434 9.33333H1.56562C1.13784 9.33333 0.787842 9.68333 0.787842 10.1111C0.787842 10.5389 1.13784 10.8889 1.56562 10.8889H9.3434C9.77118 10.8889 10.1212 10.5389 10.1212 10.1111C10.1212 9.68333 9.77118 9.33333 9.3434 9.33333ZM14.0101 7.77778H1.56562C1.13784 7.77778 0.787842 7.42778 0.787842 7C0.787842 6.57222 1.13784 6.22222 1.56562 6.22222H14.0101C14.4378 6.22222 14.7878 6.57222 14.7878 7C14.7878 7.42778 14.4378 7.77778 14.0101 7.77778ZM1.56562 14H14.0101C14.4378 14 14.7878 13.65 14.7878 13.2222C14.7878 12.7944 14.4378 12.4444 14.0101 12.4444H1.56562C1.13784 12.4444 0.787842 12.7944 0.787842 13.2222C0.787842 13.65 1.13784 14 1.56562 14Z" fill="#212B36"/>
</svg>
