<svg width="14" height="12" viewBox="0 0 14 12" fill="none" xmlns="http://www.w3.org/2000/svg">
<path fill-rule="evenodd" clip-rule="evenodd" d="M13.7878 1.15588C13.7878 1.79547 13.2924 2.31177 12.6788 2.31177H9.50677L8.43465 4.90865L6.88933 3.29812L7.29599 2.31177H5.94291L3.72473 0H12.6788C13.2924 0 13.7878 0.516295 13.7878 1.15588ZM2.04632 0.43153L11.895 10.6958C12.1834 10.9963 12.1834 11.4818 11.8876 11.7746C11.5992 12.0751 11.1334 12.0751 10.8451 11.7746L7.18508 7.96019L6.29042 10.141C6.12775 10.534 5.75806 10.7882 5.35139 10.7882C4.6194 10.7882 4.124 10.01 4.41237 9.30101L5.63236 6.34195L1.00378 1.51806C0.817544 1.32397 0.744812 1.04108 0.812978 0.775946C0.881143 0.510814 1.07985 0.303723 1.33425 0.232681C1.58865 0.161639 1.86008 0.23744 2.04632 0.43153Z" fill="#212B36"/>
</svg>
