<svg width="15" height="12" viewBox="0 0 15 12" fill="none" xmlns="http://www.w3.org/2000/svg">
<path fill-rule="evenodd" clip-rule="evenodd" d="M2.3434 1.6C2.3434 2.20867 2.86451 2.7 3.51006 2.7H6.23229V4.9H9.3434V2.7H12.0656C12.7112 2.7 13.2323 2.20867 13.2323 1.6C13.2323 0.991333 12.7112 0.5 12.0656 0.5H3.51006C2.86451 0.5 2.3434 0.991333 2.3434 1.6ZM7.78784 11.5C8.6434 11.5 9.3434 10.84 9.3434 10.0333V9.3H6.23229V10.0333C6.23229 10.84 6.93229 11.5 7.78784 11.5ZM14.0101 7.83333H1.56562C1.13784 7.83333 0.787842 7.50333 0.787842 7.1C0.787842 6.69667 1.13784 6.36667 1.56562 6.36667H14.0101C14.4378 6.36667 14.7878 6.69667 14.7878 7.1C14.7878 7.50333 14.4378 7.83333 14.0101 7.83333Z" fill="#212B36"/>
</svg>
