<svg width="16" height="16" viewBox="0 0 16 16" fill="none" xmlns="http://www.w3.org/2000/svg">
<path fill-rule="evenodd" clip-rule="evenodd" d="M14.0224 1.4106C12.1511 0.0238621 9.54193 0.242229 7.92687 1.92075L7.11713 2.74599C6.92997 2.88214 6.80925 3.0913 6.78496 3.32155C6.76066 3.55181 6.83505 3.78159 6.98967 3.95384C7.13045 4.09587 7.32209 4.17576 7.522 4.17576C7.72191 4.17576 7.91355 4.09587 8.05432 3.95384L9.02901 2.97106C10.1387 1.81544 11.9418 1.68588 13.2051 2.67097C13.8647 3.21082 14.2636 4.00591 14.3022 4.85766C14.3408 5.7094 14.0155 6.53738 13.4076 7.13478L12.3429 8.2076C12.201 8.34846 12.1211 8.54022 12.1211 8.74025C12.1211 8.94029 12.201 9.13204 12.3429 9.27291C12.4837 9.41494 12.6753 9.49482 12.8752 9.49482C13.0752 9.49482 13.2668 9.41494 13.4076 9.27291L14.4722 8.2076C15.3885 7.28203 15.8639 6.00762 15.7779 4.70767C15.6919 3.40772 15.0526 2.20717 14.0224 1.4106ZM8.48918 12.0487L7.5295 13.0015C6.41412 14.1515 4.61376 14.2807 3.34586 13.3016C2.69128 12.7619 2.29571 11.97 2.25713 11.1222C2.21855 10.2743 2.54057 9.4498 3.14343 8.85279L4.20808 7.77997C4.35002 7.6391 4.42986 7.44735 4.42986 7.24731C4.42986 7.04728 4.35002 6.85552 4.20808 6.71466C4.0673 6.57263 3.87567 6.49274 3.67576 6.49274C3.47584 6.49274 3.28421 6.57263 3.14343 6.71466L2.19124 7.67494C0.532282 9.28243 0.317586 11.87 1.6889 13.7292C2.48498 14.7626 3.6864 15.4039 4.98751 15.4901C6.28862 15.5762 7.564 15.0988 8.48918 14.1794L9.55383 13.114C9.84783 12.8199 9.84783 12.3429 9.55383 12.0487C9.25984 11.7545 8.78318 11.7545 8.48918 12.0487ZM6.25534 8.9675L9.25534 5.9675C9.54943 5.67341 10.0262 5.67341 10.3203 5.9675C10.6144 6.26159 10.6144 6.73841 10.3203 7.0325L7.32034 10.0325C7.17952 10.1745 6.98782 10.2543 6.78784 10.2543C6.58786 10.2543 6.39617 10.1745 6.25534 10.0325C6.11336 9.89167 6.03349 9.69998 6.03349 9.5C6.03349 9.30002 6.11336 9.10833 6.25534 8.9675Z" fill="#212B36"/>
</svg>
