<svg width="11" height="14" viewBox="0 0 11 14" fill="none" xmlns="http://www.w3.org/2000/svg">
<path fill-rule="evenodd" clip-rule="evenodd" d="M10.0736 6.05889C10.0736 8.43111 8.51641 10.5467 6.35213 10.85C3.73784 11.2156 1.50213 8.99889 1.50213 6.22222V0.972222C1.50213 0.435279 1.90187 0 2.39498 0C2.8881 0 3.28784 0.435279 3.28784 0.972222V6.22222C3.28689 7.04405 3.62754 7.8222 4.21444 8.3389C4.80135 8.8556 5.57147 9.05534 6.30927 8.88222C7.4807 8.62556 8.28784 7.44333 8.28784 6.14444V0.972222C8.28784 0.435279 8.68759 0 9.1807 0C9.67381 0 10.0736 0.435279 10.0736 0.972222V6.05889ZM1.50213 14C1.10927 14 0.787842 13.65 0.787842 13.2222C0.787842 12.7944 1.10927 12.4444 1.50213 12.4444H10.0736C10.4664 12.4444 10.7878 12.7944 10.7878 13.2222C10.7878 13.65 10.4664 14 10.0736 14H1.50213Z" fill="#212B36"/>
</svg>
