<svg width="15" height="12" viewBox="0 0 15 12" fill="none" xmlns="http://www.w3.org/2000/svg">
<path fill-rule="evenodd" clip-rule="evenodd" d="M1.15626 0.75H1.52468V2.625C1.52468 2.835 1.68679 3 1.8931 3C2.09942 3 2.26153 2.835 2.26153 2.625V0.375C2.26153 0.165 2.09942 0 1.8931 0H1.15626C0.949947 0 0.787842 0.165 0.787842 0.375C0.787842 0.585 0.949947 0.75 1.15626 0.75ZM14.051 2.25H5.20889C4.80363 2.25 4.47205 1.9125 4.47205 1.5C4.47205 1.0875 4.80363 0.75 5.20889 0.75H14.051C14.4563 0.75 14.7878 1.0875 14.7878 1.5C14.7878 1.9125 14.4563 2.25 14.051 2.25ZM5.20889 9.75H14.051C14.4563 9.75 14.7878 10.0875 14.7878 10.5C14.7878 10.9125 14.4563 11.25 14.051 11.25H5.20889C4.80363 11.25 4.47205 10.9125 4.47205 10.5C4.47205 10.0875 4.80363 9.75 5.20889 9.75ZM14.051 5.25H5.20889C4.80363 5.25 4.47205 5.5875 4.47205 6C4.47205 6.4125 4.80363 6.75 5.20889 6.75H14.051C14.4563 6.75 14.7878 6.4125 14.7878 6C14.7878 5.5875 14.4563 5.25 14.051 5.25ZM2.62995 9C2.83626 9 2.99837 9.165 2.99837 9.375V11.625C2.99837 11.835 2.83626 12 2.62995 12H1.15626C0.949947 12 0.787842 11.835 0.787842 11.625C0.787842 11.415 0.949947 11.25 1.15626 11.25H2.26153V10.875H1.8931C1.68679 10.875 1.52468 10.71 1.52468 10.5C1.52468 10.29 1.68679 10.125 1.8931 10.125H2.26153V9.75H1.15626C0.949947 9.75 0.787842 9.585 0.787842 9.375C0.787842 9.165 0.949947 9 1.15626 9H2.62995ZM0.787842 4.875C0.787842 4.665 0.949947 4.5 1.15626 4.5H2.62995C2.83626 4.5 2.99837 4.665 2.99837 4.875V5.04C2.99815 5.12821 2.96676 5.21339 2.90995 5.28L1.67205 6.75H2.62995C2.83626 6.75 2.99837 6.915 2.99837 7.125C2.99837 7.335 2.83626 7.5 2.62995 7.5H1.15626C0.949947 7.5 0.787842 7.335 0.787842 7.125V6.96C0.788063 6.87179 0.819447 6.78661 0.876263 6.72L2.11416 5.25H1.15626C0.949947 5.25 0.787842 5.085 0.787842 4.875Z" fill="#212B36"/>
</svg>
