<svg width="15" height="12" viewBox="0 0 15 12" fill="none" xmlns="http://www.w3.org/2000/svg">
<path fill-rule="evenodd" clip-rule="evenodd" d="M0.787842 1.6C0.787842 0.991333 1.29487 0.5 1.92298 0.5C2.55108 0.5 3.05811 0.991333 3.05811 1.6C3.05811 2.20867 2.55108 2.7 1.92298 2.7C1.29487 2.7 0.787842 2.20867 0.787842 1.6ZM0.787842 6C0.787842 5.39133 1.29487 4.9 1.92298 4.9C2.55108 4.9 3.05811 5.39133 3.05811 6C3.05811 6.60867 2.55108 7.1 1.92298 7.1C1.29487 7.1 0.787842 6.60867 0.787842 6ZM1.92298 9.3C1.29487 9.3 0.787842 9.79867 0.787842 10.4C0.787842 11.0013 1.30244 11.5 1.92298 11.5C2.54352 11.5 3.05811 11.0013 3.05811 10.4C3.05811 9.79867 2.55108 9.3 1.92298 9.3ZM14.0311 11.1333H4.95C4.53379 11.1333 4.19325 10.8033 4.19325 10.4C4.19325 9.99667 4.53379 9.66667 4.95 9.66667H14.0311C14.4473 9.66667 14.7878 9.99667 14.7878 10.4C14.7878 10.8033 14.4473 11.1333 14.0311 11.1333ZM4.95 6.73333H14.0311C14.4473 6.73333 14.7878 6.40333 14.7878 6C14.7878 5.59667 14.4473 5.26667 14.0311 5.26667H4.95C4.53379 5.26667 4.19325 5.59667 4.19325 6C4.19325 6.40333 4.53379 6.73333 4.95 6.73333ZM4.95 2.33333C4.53379 2.33333 4.19325 2.00333 4.19325 1.6C4.19325 1.19667 4.53379 0.866667 4.95 0.866667H14.0311C14.4473 0.866667 14.7878 1.19667 14.7878 1.6C14.7878 2.00333 14.4473 2.33333 14.0311 2.33333H4.95Z" fill="#212B36"/>
</svg>
