<svg width="10" height="10" viewBox="0 0 10 10" fill="none" xmlns="http://www.w3.org/2000/svg">
<path d="M3.78784 1.07143C3.78784 1.66429 4.29034 2.14286 4.91284 2.14286H5.44534L2.88034 7.85714H1.91284C1.29034 7.85714 0.787842 8.33571 0.787842 8.92857C0.787842 9.52143 1.29034 10 1.91284 10H5.66284C6.28534 10 6.78784 9.52143 6.78784 8.92857C6.78784 8.33571 6.28534 7.85714 5.66284 7.85714H5.13034L7.69534 2.14286H8.66284C9.28534 2.14286 9.78784 1.66429 9.78784 1.07143C9.78784 0.478571 9.28534 0 8.66284 0H4.91284C4.29034 0 3.78784 0.478571 3.78784 1.07143Z" fill="#212B36"/>
</svg>
