<svg width="13" height="14" viewBox="0 0 13 14" fill="none" xmlns="http://www.w3.org/2000/svg">
<path fill-rule="evenodd" clip-rule="evenodd" d="M3.8275 8.70848V5.80566C2.96974 5.80591 2.15184 5.4599 1.57572 4.85303C0.999593 4.24616 0.718938 3.435 0.80304 2.6198C0.955023 1.11033 2.36846 0 3.95668 0H9.14689C9.56484 0 9.9068 0.326568 9.9068 0.725707C9.9068 1.12485 9.56484 1.45141 9.14689 1.45141H8.38698V8.70848C8.38698 9.10762 8.04501 9.43419 7.62706 9.43419C7.20911 9.43419 6.86715 9.10762 6.86715 8.70848V1.45141H5.34732V8.70848C5.34732 9.10762 5.00536 9.43419 4.58741 9.43419C4.16946 9.43419 3.8275 9.10762 3.8275 8.70848ZM10.5603 9.33259L12.6805 11.3573C12.8249 11.4952 12.8249 11.7274 12.6729 11.8653L10.5527 13.89C10.3172 14.1223 9.9068 13.9626 9.9068 13.636V12.337H1.54776C1.1298 12.337 0.787842 12.0104 0.787842 11.6113C0.787842 11.2122 1.1298 10.8856 1.54776 10.8856H9.9068V9.58659C9.90663 9.43857 10.0004 9.30523 10.144 9.24944C10.2876 9.19364 10.4522 9.22653 10.5603 9.33259Z" fill="#212B36"/>
</svg>
