<svg width="9" height="10" viewBox="0 0 9 10" fill="none" xmlns="http://www.w3.org/2000/svg">
<path fill-rule="evenodd" clip-rule="evenodd" d="M7.18774 4.85C7.90959 4.37143 8.41563 3.58571 8.41563 2.85714C8.41563 1.24286 7.11332 0 5.43893 0H1.53202C1.12272 0 0.787842 0.321429 0.787842 0.714286V9.28571C0.787842 9.67857 1.12272 10 1.53202 10H5.83334C7.37378 10 8.78027 8.79286 8.78771 7.30714C8.79516 6.21429 8.15517 5.27857 7.18774 4.85ZM3.02036 1.78571H5.25289C5.87055 1.78571 6.36915 2.26429 6.36915 2.85714C6.36915 3.45 5.87055 3.92857 5.25289 3.92857H3.02036V1.78571ZM3.02036 8.21429H5.62497C6.24264 8.21429 6.74124 7.73571 6.74124 7.14286C6.74124 6.55 6.24264 6.07143 5.62497 6.07143H3.02036V8.21429Z" fill="#212B36"/>
</svg>
