<svg width="201" height="150" viewBox="0 0 201 150" fill="none" xmlns="http://www.w3.org/2000/svg">
<g opacity="0.2">
<mask id="mask0_1337_2891" style="mask-type:alpha" maskUnits="userSpaceOnUse" x="0" y="0" width="201" height="150">
<path opacity="0.48" fill-rule="evenodd" clip-rule="evenodd" d="M0.5 82.8253C0.5 100.099 6.72724 115.84 16.9746 127.736C28.7306 141.388 45.778 149.971 64.7803 150C73.085 150.012 81.0259 148.38 88.3199 145.401C92.0913 143.861 96.3124 144.037 99.9651 145.863C104.25 148.002 109.048 149.201 114.114 149.201C116.207 149.201 118.256 148.995 120.239 148.603C125.897 147.491 131.047 144.858 135.276 141.128C137.934 138.784 141.338 137.605 144.817 137.609H144.876C156.371 137.609 167.049 133.971 175.914 127.736C183.84 122.169 190.312 114.529 194.624 105.559C198.384 97.7421 200.5 88.9117 200.5 79.5658C200.5 47.5113 175.594 21.5222 144.876 21.5222C141.744 21.5222 138.676 21.7982 135.683 22.3132C127.757 8.92503 113.565 0 97.3743 0C90.5388 0 84.0585 1.5907 78.2578 4.44218C72.7413 7.14514 67.8365 10.9859 63.8243 15.6667C50.2006 15.8933 37.6033 20.5375 27.2929 28.2881C11.0631 40.4813 0.5 60.3676 0.5 82.8253Z" fill="url(#paint0_linear_1337_2891)"/>
</mask>
<g mask="url(#mask0_1337_2891)">
<rect x="0.5" width="200" height="150" fill="#00A76F"/>
</g>
</g>
<path opacity="0.05" d="M122.586 85.913C121.649 87.0266 120.637 87.008 120.034 86.851L120.057 86.2742C120.057 86.2742 122.548 85.1356 122.485 85.3748C122.461 85.4645 122.508 85.68 122.586 85.913Z" fill="#FF5630"/>
<path opacity="0.05" d="M129.414 87.1735C127.823 88.0928 126.89 87.0153 126.673 86.7101C126.806 86.36 127.007 85.792 126.966 85.63C126.906 85.3896 129.394 86.5282 129.394 86.5282L129.414 87.1735Z" fill="#FF5630"/>
<path opacity="0.05" d="M127.709 78.002C127.709 78.002 129.223 77.13 129.553 77.5224C129.883 77.9148 127.709 78.002 127.709 78.002Z" fill="#FF5630"/>
<path opacity="0.05" d="M128.624 78.4814C128.624 78.4814 128.374 78.606 128.924 78.7655C129.473 78.9249 128.624 78.4814 128.624 78.4814Z" fill="#FF5630"/>
<path opacity="0.05" d="M119.472 76.0826C119.421 76.0976 120.731 76.9671 121.915 76.2471C121.91 76.2471 119.767 75.993 119.472 76.0826Z" fill="#FF5630"/>
<path opacity="0.05" d="M121.85 77.7461C121.85 77.7461 121.491 78.4512 120.756 78.5558C120.021 78.6604 121.85 77.7461 121.85 77.7461Z" fill="#FF5630"/>
<path opacity="0.05" d="M126.66 79.2764C126.66 79.2764 128.384 82.0169 128.054 82.6635C127.724 83.31 126.66 79.2764 126.66 79.2764Z" fill="#FF5630"/>
<path opacity="0.05" d="M123.259 90.1738C123.259 90.3271 123.259 90.4703 123.244 90.5887C123.199 91.143 121.835 90.9337 121.835 90.9337C120.589 91.1069 120.141 90.5089 119.992 89.9372C119.946 89.7514 119.923 89.5606 119.924 89.3691C119.923 89.2549 119.931 89.1409 119.946 89.0278V88.9144C120.215 88.8335 120.506 88.8929 120.721 89.0726C121.275 89.5223 122.01 89.1773 122.01 89.1773C122.01 89.1773 122.55 89.2221 122.758 89.4015C122.875 89.5024 123.068 89.2595 123.215 89.0278C123.224 89.1773 123.237 89.4476 123.246 89.7366C123.256 89.8848 123.259 90.0343 123.259 90.1738Z" fill="#FF5630"/>
<path opacity="0.05" d="M121.071 90.1414C121.071 90.1414 120.697 90.5076 119.992 89.9421C119.946 89.7563 119.923 89.5655 119.924 89.374C120.284 89.6481 120.952 90.1414 121.071 90.1414Z" fill="#FF5630"/>
<path opacity="0.05" d="M123.258 90.1738C123.197 90.2213 123.119 90.2412 123.042 90.2289C122.965 90.2167 122.897 90.1733 122.854 90.1091C122.999 89.9985 123.132 89.8733 123.252 89.7354C123.256 89.8848 123.258 90.0343 123.258 90.1738Z" fill="#FF5630"/>
<path opacity="0.05" d="M126.182 90.4298C126.182 90.5843 126.182 90.7276 126.196 90.8447C126.241 91.4003 127.605 91.1897 127.605 91.1897C128.851 91.3641 129.299 90.7662 129.447 90.1932C129.521 89.8958 129.536 89.5871 129.493 89.2838V89.1704C129.224 89.0908 128.934 89.1501 128.717 89.3286C128.163 89.7783 127.429 89.4333 127.429 89.4333C127.429 89.4333 126.89 89.4794 126.682 89.6587C126.565 89.7596 126.372 89.5167 126.226 89.285C126.217 89.4345 126.202 89.7048 126.193 89.9938C126.183 90.1396 126.181 90.2891 126.182 90.4298Z" fill="#FF5630"/>
<path opacity="0.05" d="M128.37 90.395C128.37 90.395 128.744 90.7613 129.447 90.1957C129.494 90.0105 129.518 89.82 129.517 89.6289C129.156 89.9017 128.488 90.395 128.37 90.395Z" fill="#FF5630"/>
<path opacity="0.05" d="M126.182 90.4297C126.243 90.4771 126.322 90.497 126.398 90.4847C126.474 90.4724 126.542 90.4291 126.586 90.3649C126.44 90.2545 126.307 90.1293 126.187 89.9912C126.183 90.1395 126.181 90.2889 126.182 90.4297Z" fill="#FF5630"/>
<g opacity="0.05">
<path d="M133.673 44.2783C133.699 44.221 133.724 44.1637 133.748 44.1076C133.771 44.0516 133.78 44.0204 133.794 43.9756C133.748 44.0742 133.707 44.1752 133.673 44.2783Z" fill="#FF5630"/>
</g>
<path fill-rule="evenodd" clip-rule="evenodd" d="M66.1634 116.442C65.8615 116.078 65.7231 115.606 65.781 115.138L71.2796 70.146L71.7355 66.4089C71.8412 65.5489 72.5683 64.9007 73.4347 64.8941L89.5405 64.7869C90.0038 64.7841 90.4465 64.5948 90.7685 64.2617C91.0906 63.9286 91.2649 63.4799 91.2522 63.0168L91.2459 62.8461C91.2301 62.379 91.4045 61.9255 91.7293 61.5894C92.0541 61.2534 92.5014 61.0635 92.9688 61.0635H109.893C110.843 61.0635 111.614 61.8325 111.616 62.7826C111.616 62.86 111.611 62.9374 111.601 63.0143C111.536 63.4992 111.68 63.9888 111.998 64.3609C112.315 64.7331 112.776 64.9528 113.265 64.9651L129.519 65.3799C130.019 65.3922 130.489 65.6214 130.807 66.0079C131.125 66.3944 131.259 66.9 131.174 67.393L123.048 114.855L122.895 115.752C122.857 115.981 122.772 116.2 122.645 116.395L66.1634 116.442Z" fill="#004B50"/>
<rect x="115.214" y="51.5312" width="9.51728" height="32.3027" transform="rotate(34.64 115.214 51.5312)" fill="white"/>
<rect x="115.779" y="52.791" width="6.71903" height="6.71903" transform="rotate(34.804 115.779 52.791)" fill="#FFAB00"/>
<rect opacity="0.5" x="111.457" y="59.4395" width="6.72812" height="6.72812" transform="rotate(34.64 111.457 59.4395)" fill="#FFAB00"/>
<rect opacity="0.3" x="106.838" y="66.1221" width="6.72813" height="6.72813" transform="rotate(34.64 106.838 66.1221)" fill="#FFAB00"/>
<rect x="104.152" y="49.8672" width="9.51729" height="32.1806" transform="rotate(16.29 104.152 49.8672)" fill="white"/>
<rect x="105.351" y="50.7588" width="6.72812" height="6.72812" transform="rotate(16.29 105.351 50.7588)" fill="#FF5630"/>
<rect opacity="0.5" x="103.072" y="58.5557" width="6.72812" height="6.72812" transform="rotate(16.29 103.072 58.5557)" fill="#FF5630"/>
<rect opacity="0.3" x="100.794" y="66.3506" width="6.72813" height="6.72813" transform="rotate(16.29 100.794 66.3506)" fill="#FF5630"/>
<rect x="97.6807" y="50.3545" width="9.51729" height="32.1806" transform="rotate(4.6 97.6807 50.3545)" fill="white"/>
<rect x="99.0308" y="50.9854" width="6.72812" height="6.72812" transform="rotate(4.6 99.0308 50.9854)" fill="#00B8D9"/>
<rect opacity="0.5" x="98.3784" y="59.0801" width="6.72812" height="6.72812" transform="rotate(4.6 98.3784 59.0801)" fill="#00B8D9"/>
<rect opacity="0.3" x="97.7273" y="67.1768" width="6.72812" height="6.72812" transform="rotate(4.6 97.7273 67.1768)" fill="#00B8D9"/>
<rect x="93.4126" y="51.6436" width="9.51728" height="32.1806" transform="rotate(-2.61 93.4126 51.6436)" fill="white"/>
<rect x="94.8298" y="52.0986" width="6.72813" height="6.72812" transform="rotate(-2.61 94.8298 52.0986)" fill="#00A76F"/>
<rect opacity="0.5" x="95.4634" y="59.9551" width="6.73653" height="6.73653" transform="rotate(-2.86241 95.4634 59.9551)" fill="#00A76F"/>
<rect opacity="0.3" x="95.5691" y="68.3271" width="6.72812" height="6.72813" transform="rotate(-2.61 95.5691 68.3271)" fill="#00A76F"/>
<path d="M97.4498 94.053L88.9939 97.3242L76.6351 102.102C76.168 101.23 75.4803 100.051 74.6295 98.6447C71.7021 93.7939 66.8587 86.2486 62.546 79.6176C57.6877 72.1433 53.5059 65.8362 53.5059 65.8362L56.533 64.9642L81.2605 57.7852L97.4498 94.053Z" fill="#F4F6F8"/>
<path opacity="0.1" d="M97.4495 94.053L88.9936 97.3242C84.2699 98.3084 79.4495 98.7514 74.6255 98.6447C71.6981 93.7939 66.8547 86.2486 62.542 79.6176L56.5339 64.9592L81.2602 57.7852L97.4495 94.053Z" fill="black"/>
<path d="M103.74 92.0172C103.74 92.0172 90.6043 99.788 70.9917 98.0303L55.3567 59.9113L62.8497 58.6233L88.7531 54.1748L103.453 91.276L103.74 92.0172Z" fill="#00A76F"/>
<path opacity="0.1" d="M103.448 91.2809C100.355 91.4329 96.7757 91.4179 93.1756 90.9882C89.279 90.5297 85.36 89.5855 82.0003 87.8539C79.1912 86.4077 76.7894 84.8343 74.6954 82.947C69.2479 78.0476 65.8769 71.0392 62.8499 58.6281L88.7533 54.1797L103.448 91.2809Z" fill="#FF5630"/>
<path d="M113.085 89.1495C113.085 89.1495 103.402 91.0455 93.5455 89.8782C89.6489 89.4198 85.7298 88.4756 82.3701 86.744C79.5611 85.2977 77.1606 83.7244 75.0653 81.8371C68.3234 75.7717 64.7632 66.4762 61.092 47.7045C61.092 47.7045 77.1892 51.5898 93.107 43.0791C93.102 43.0853 98.4673 76.5677 113.085 89.1495Z" fill="white"/>
<g opacity="0.3">
<path d="M69.4185 54.5957C69.4185 54.5957 82.5085 53.8557 86.1634 51.0342L86.7177 52.8156C86.7177 52.8156 78.0687 56.6312 69.4185 56.6773V54.5957Z" fill="#00A76F"/>
<path d="M69.4185 63.3904C69.4185 63.3904 82.0924 62.6966 91.6682 58.0712L91.9921 58.8112C91.9921 58.8112 84.3932 63.2472 69.4185 64.4082V63.3904Z" fill="#00A76F"/>
<path d="M70.439 66.8175C70.439 66.8175 83.1129 66.1236 92.6875 61.4983L93.0114 62.2382C93.0114 62.2382 85.4125 66.673 70.439 67.8352V66.8175Z" fill="#00A76F"/>
<path d="M71.4578 70.2494C71.4578 70.2494 84.1318 69.5555 93.7076 64.9302L94.0302 65.6701C94.0302 65.6701 86.4314 70.1061 71.4578 71.2671V70.2494Z" fill="#00A76F"/>
<path d="M72.4779 73.6814C72.4779 73.6814 85.1519 72.9875 94.7265 68.3622L95.0504 69.1021C95.0504 69.1021 87.4515 73.5381 72.4779 74.6991V73.6814Z" fill="#00A76F"/>
<path d="M73.4968 77.1145C73.4968 77.1145 86.1708 76.4206 95.7466 71.7953L96.0692 72.5352C96.0692 72.5352 88.4704 76.97 73.4968 78.1323V77.1145Z" fill="#00A76F"/>
</g>
<path d="M162.612 119.727C162.612 119.727 157.345 119.41 157.965 123.101C157.965 123.101 157.841 123.752 158.434 124.049C158.434 124.049 158.442 123.775 158.973 123.868C159.162 123.9 159.355 123.909 159.546 123.895C159.804 123.878 160.05 123.777 160.245 123.606C160.245 123.606 161.726 122.995 162.302 120.576C162.302 120.576 162.728 120.047 162.71 119.912L161.822 120.285C161.822 120.285 162.126 120.927 161.887 121.459C161.887 121.459 161.858 120.309 161.687 120.338C161.653 120.338 161.225 120.559 161.225 120.559C161.225 120.559 161.747 121.681 161.35 122.488C161.35 122.488 161.499 121.111 161.058 120.64L160.436 121.005C160.436 121.005 161.046 122.159 160.632 123.101C160.632 123.101 160.738 121.657 160.303 121.094L159.737 121.536C159.737 121.536 160.311 122.673 159.961 123.454C159.961 123.454 159.915 121.773 159.613 121.646C159.613 121.646 159.115 122.083 159.043 122.269C159.043 122.269 159.435 123.093 159.191 123.529C159.191 123.529 159.042 122.408 158.919 122.408C158.919 122.408 158.421 123.156 158.374 123.654C158.374 123.654 158.395 122.896 158.8 122.332C158.515 122.387 158.251 122.523 158.043 122.725C158.043 122.725 158.12 122.199 158.922 122.154C158.922 122.154 159.331 121.591 159.439 121.556C159.439 121.556 158.642 121.49 158.158 121.704C158.158 121.704 158.584 121.206 159.586 121.434L160.145 120.978C160.145 120.978 159.095 120.834 158.65 120.993C158.65 120.993 159.162 120.554 160.296 120.868L160.905 120.505C160.905 120.505 160.011 120.312 159.478 120.38C159.478 120.38 160.039 120.076 161.085 120.405L161.519 120.209C161.519 120.209 160.864 120.085 160.672 120.06C160.48 120.035 160.469 119.988 160.469 119.988C160.885 119.918 161.311 119.965 161.701 120.125C161.701 120.125 162.627 119.786 162.612 119.727Z" fill="#00A76F"/>
<path d="M165.065 107.543C165.065 107.543 162.096 107.364 162.449 109.445C162.412 109.661 162.518 109.877 162.712 109.98C162.712 109.98 162.718 109.825 163.017 109.877C163.123 109.895 163.232 109.9 163.339 109.892C163.485 109.883 163.623 109.826 163.733 109.73C163.733 109.73 164.568 109.385 164.893 108.021C164.893 108.021 165.133 107.724 165.123 107.648L164.625 107.861C164.625 107.861 164.796 108.223 164.661 108.523C164.661 108.523 164.645 107.874 164.549 107.889C164.529 107.889 164.289 108.014 164.289 108.014C164.289 108.014 164.583 108.637 164.361 109.101C164.361 109.101 164.446 108.325 164.197 108.059L163.844 108.265C163.844 108.265 164.188 108.916 163.955 109.446C163.955 109.446 164.015 108.632 163.769 108.315L163.45 108.564C163.45 108.564 163.773 109.206 163.575 109.646C163.575 109.646 163.549 108.698 163.379 108.627C163.258 108.729 163.15 108.846 163.057 108.974C163.057 108.974 163.278 109.44 163.141 109.686C163.141 109.686 163.057 109.054 162.988 109.052C162.988 109.052 162.709 109.469 162.68 109.755C162.694 109.489 162.777 109.232 162.921 109.008C162.76 109.038 162.611 109.115 162.494 109.23C162.494 109.23 162.537 108.933 162.992 108.908C162.992 108.908 163.222 108.591 163.283 108.571C163.283 108.571 162.834 108.533 162.561 108.654C162.561 108.654 162.801 108.375 163.366 108.502L163.682 108.244C163.682 108.244 163.089 108.163 162.839 108.253C162.839 108.253 163.128 108.004 163.767 108.186L164.111 107.98C163.846 107.922 163.575 107.899 163.305 107.912C163.305 107.912 163.622 107.74 164.21 107.925L164.459 107.816C164.459 107.816 164.086 107.742 163.981 107.731C163.876 107.72 163.866 107.69 163.866 107.69C164.101 107.651 164.341 107.678 164.562 107.767C164.562 107.767 165.075 107.575 165.065 107.543Z" fill="#00A76F"/>
<path d="M147.54 109.349C147.54 109.349 143.955 109.132 144.378 111.645C144.333 111.906 144.461 112.167 144.696 112.29C144.696 112.29 144.696 112.103 145.07 112.166C145.198 112.188 145.329 112.194 145.46 112.184C145.635 112.173 145.803 112.104 145.935 111.988C145.935 111.988 146.943 111.572 147.336 109.925C147.336 109.925 147.626 109.566 147.613 109.473L147.002 109.732C147.002 109.732 147.209 110.168 147.045 110.53C147.045 110.53 147.025 109.748 146.91 109.765C146.886 109.765 146.596 109.917 146.596 109.917C146.596 109.917 146.951 110.677 146.683 111.23C146.683 111.23 146.785 110.293 146.485 109.972L146.059 110.221C146.059 110.221 146.474 111.007 146.192 111.648C146.192 111.648 146.264 110.665 145.969 110.277L145.583 110.579C145.583 110.579 145.974 111.352 145.735 111.884C145.735 111.884 145.705 110.739 145.499 110.653C145.499 110.653 145.162 110.951 145.111 111.073C145.111 111.073 145.377 111.635 145.212 111.932C145.212 111.932 145.11 111.169 145.026 111.165C145.026 111.165 144.691 111.671 144.652 112.016C144.669 111.696 144.769 111.386 144.943 111.117C144.749 111.154 144.57 111.247 144.428 111.385C144.428 111.385 144.48 111.027 145.026 110.996C145.026 110.996 145.304 110.612 145.379 110.59C145.379 110.59 144.835 110.544 144.507 110.69C144.507 110.69 144.796 110.353 145.477 110.506L145.858 110.195C145.858 110.195 145.144 110.098 144.84 110.205C144.84 110.205 145.189 109.907 145.962 110.125L146.376 109.876C146.376 109.876 145.767 109.745 145.404 109.793C145.404 109.793 145.787 109.586 146.497 109.81L146.794 109.677C146.794 109.677 146.348 109.59 146.217 109.576C146.086 109.562 146.08 109.526 146.08 109.526C146.363 109.478 146.653 109.51 146.918 109.618C146.918 109.618 147.551 109.388 147.54 109.349Z" fill="#00A76F"/>
<rect x="116.388" y="52.0889" width="21.2607" height="38.0467" rx="4.73723" transform="rotate(-71.99 116.388 52.0889)" fill="white"/>
<g opacity="0.24">
<path d="M130.912 43.1283C130.912 45.2858 129.163 47.0348 127.005 47.0348C124.848 47.0348 123.099 45.2858 123.099 43.1283C123.099 40.9707 124.848 39.2217 127.005 39.2217C129.163 39.2217 130.912 40.9707 130.912 43.1283Z" fill="#00A76F"/>
<path d="M136.352 42.425L136.683 41.4073L152.87 46.6697L152.539 47.6873L136.352 42.425Z" fill="#00A76F"/>
<path d="M135.509 45.0195L135.84 44.0018L144.085 46.6825L143.754 47.7002L135.509 45.0195Z" fill="#00A76F"/>
<path d="M134.664 47.6157L134.994 46.598L148.33 50.9337L148 51.9514L134.664 47.6157Z" fill="#00A76F"/>
<path d="M133.82 50.2108L134.151 49.1932L150.338 54.4556L150.007 55.4732L133.82 50.2108Z" fill="#00A76F"/>
</g>
<rect opacity="0.5" x="144" y="58.7139" width="2.06914" height="4.71006" transform="rotate(-71.99 144 58.7139)" fill="#00A76F"/>
<rect x="113.069" y="89.0088" width="20.9584" height="32.6269" rx="4" transform="rotate(-57.2648 113.069 89.0088)" fill="white"/>
<path d="M130.125 94.6539L137.109 83.6621L138.189 84.3482L131.205 95.34L130.125 94.6539Z" fill="#F4F6F8"/>
<path d="M132.432 96.1184L139.416 85.1265L140.495 85.8126L133.512 96.8044L132.432 96.1184Z" fill="#F4F6F8"/>
<path d="M117.136 87.7797L120.316 82.7748L121.493 83.523L118.313 88.5279L117.136 87.7797Z" fill="#C4CDD5"/>
<path d="M120.9 88.7936L127.883 77.8018L128.963 78.4878L121.979 89.4796L120.9 88.7936Z" fill="#C4CDD5"/>
<path d="M123.206 90.2578L130.19 79.266L131.27 79.9521L124.286 90.9439L123.206 90.2578Z" fill="#C4CDD5"/>
<path d="M125.513 91.7245L132.496 80.7327L133.576 81.4187L126.592 92.4105L125.513 91.7245Z" fill="#C4CDD5"/>
<path d="M127.899 93.8494L134.931 82.9103L136.006 83.6012L128.974 94.5403L127.899 93.8494Z" fill="#C4CDD5"/>
<path d="M142.116 89.8751L143.925 87.0288L146.771 88.8372L144.962 91.6835L142.116 89.8751Z" fill="#C4CDD5"/>
<path d="M112.698 70.3165L93.6289 70.522C92.9151 70.5295 92.3402 71.11 92.3396 71.8238V73.3996C92.3391 74.1063 91.7754 74.6838 91.0689 74.7014L77.3087 75.0315C76.7086 75.0466 76.176 74.6493 76.0194 74.0698L75.3729 71.6942C75.2178 71.1211 74.6947 70.7256 74.101 70.7325L55.7204 70.9306C55.3393 70.9343 54.979 71.1049 54.7345 71.3973C54.49 71.6898 54.386 72.0746 54.4498 72.4504L61.8444 115.971C61.9504 116.595 62.4902 117.053 63.1237 117.056L121.192 117.305C121.581 117.306 121.95 117.134 122.199 116.834C122.447 116.535 122.549 116.14 122.476 115.758L113.99 71.3741C113.872 70.7555 113.328 70.3101 112.698 70.3165Z" fill="url(#paint1_linear_1337_2891)"/>
<g opacity="0.2">
<path d="M162.711 124.37C162.711 124.718 161.043 125 158.984 125C156.926 125 155.257 124.718 155.257 124.37C155.257 124.022 156.926 123.739 158.984 123.739C161.043 123.739 162.711 124.022 162.711 124.37Z" fill="#00A76F"/>
<path d="M165.123 110.16C165.123 110.356 164.183 110.515 163.022 110.515C161.861 110.515 160.92 110.356 160.92 110.16C160.92 109.964 161.861 109.805 163.022 109.805C164.183 109.805 165.123 109.964 165.123 110.16Z" fill="#00A76F"/>
<path d="M147.609 112.509C147.609 112.746 146.473 112.938 145.071 112.938C143.67 112.938 142.534 112.746 142.534 112.509C142.534 112.273 143.67 112.081 145.071 112.081C146.473 112.081 147.609 112.273 147.609 112.509Z" fill="#00A76F"/>
<path d="M52.3499 107.777C52.3499 107.93 51.4458 108.055 50.3306 108.055C49.2154 108.055 48.3113 107.93 48.3113 107.777C48.3113 107.623 49.2154 107.499 50.3306 107.499C51.4458 107.499 52.3499 107.623 52.3499 107.777Z" fill="#00A76F"/>
<path d="M44.6151 108.56C44.6151 108.714 43.711 108.838 42.5958 108.838C41.4806 108.838 40.5765 108.714 40.5765 108.56C40.5765 108.407 41.4806 108.283 42.5958 108.283C43.711 108.283 44.6151 108.407 44.6151 108.56Z" fill="#00A76F"/>
<path d="M47.1266 110.794C47.1266 110.903 46.4841 110.991 45.6916 110.991C44.899 110.991 44.2565 110.903 44.2565 110.794C44.2565 110.685 44.899 110.597 45.6916 110.597C46.4841 110.597 47.1266 110.685 47.1266 110.794Z" fill="#00A76F"/>
<path d="M39.0989 110.597C39.0989 110.706 38.4564 110.794 37.6638 110.794C36.8713 110.794 36.2288 110.706 36.2288 110.597C36.2288 110.488 36.8713 110.4 37.6638 110.4C38.4564 110.4 39.0989 110.488 39.0989 110.597Z" fill="#00A76F"/>
</g>
<path d="M36.873 110.149C36.7828 110.075 36.7171 109.976 36.6849 109.864C36.6531 109.748 36.7087 109.626 36.817 109.573C36.9415 109.527 37.0661 109.611 37.1658 109.698C37.2654 109.785 37.3788 109.877 37.5034 109.856C37.3689 109.734 37.3083 109.551 37.3439 109.373C37.349 109.337 37.3641 109.302 37.3875 109.274C37.4548 109.202 37.5769 109.233 37.6578 109.291C37.907 109.47 37.9854 109.817 37.9867 110.131C37.9992 110.016 37.9992 109.9 37.9867 109.785C37.98 109.667 38.0323 109.554 38.1262 109.482C38.1869 109.449 38.2552 109.433 38.3243 109.435C38.44 109.418 38.5574 109.452 38.6469 109.527C38.7342 109.646 38.729 109.809 38.6345 109.922C38.539 110.029 38.4261 110.119 38.3006 110.189C38.2053 110.246 38.124 110.324 38.0627 110.417C38.0552 110.429 38.0493 110.443 38.0452 110.456H37.3202C37.1579 110.375 37.0075 110.271 36.873 110.149Z" fill="#00A76F"/>
<path d="M49.5107 107.431C49.4202 107.358 49.3545 107.258 49.3226 107.147C49.2906 107.031 49.3456 106.909 49.4534 106.856C49.578 106.81 49.7025 106.894 49.8022 106.981C49.9019 107.068 50.014 107.163 50.1423 107.144C50.0078 107.023 49.9468 106.84 49.9816 106.662C49.9871 106.626 50.0026 106.592 50.0264 106.564C50.0937 106.491 50.2158 106.523 50.2967 106.579C50.5521 106.759 50.6244 107.107 50.6256 107.421C50.6381 107.305 50.6381 107.189 50.6256 107.073C50.6143 106.957 50.6609 106.842 50.7502 106.767C50.8111 106.734 50.8794 106.719 50.9483 106.721C51.0638 106.704 51.1809 106.737 51.2709 106.812C51.3584 106.931 51.3528 107.095 51.2572 107.208C51.1625 107.315 51.0499 107.405 50.9246 107.474C50.8293 107.531 50.748 107.609 50.6867 107.701C50.6794 107.714 50.6735 107.728 50.6692 107.742H49.9604C49.7969 107.659 49.6456 107.555 49.5107 107.431Z" fill="#00A76F"/>
<path d="M45.2992 110.149C45.209 110.075 45.143 109.975 45.1098 109.864C45.078 109.748 45.1336 109.625 45.2418 109.573C45.3664 109.527 45.491 109.611 45.5906 109.698C45.6903 109.785 45.8012 109.88 45.9307 109.862C45.7964 109.74 45.7355 109.557 45.77 109.379C45.7756 109.343 45.7911 109.309 45.8149 109.281C45.8821 109.208 46.0042 109.239 46.0852 109.297C46.3406 109.476 46.4116 109.824 46.4141 110.138C46.4265 110.022 46.4265 109.906 46.4141 109.791C46.4043 109.674 46.4532 109.559 46.5449 109.485C46.6054 109.452 46.6739 109.435 46.7429 109.437C46.8587 109.421 46.976 109.455 47.0656 109.53C47.1529 109.649 47.1473 109.812 47.0519 109.925C46.9569 110.032 46.8444 110.122 46.7193 110.191C46.624 110.248 46.5427 110.326 46.4813 110.419C46.4738 110.432 46.4679 110.445 46.4639 110.459H45.7414C45.5808 110.376 45.4321 110.271 45.2992 110.149Z" fill="#00A76F"/>
<g opacity="0.08">
<path d="M38.389 36.2513C38.389 37.7394 37.1826 38.9458 35.6945 38.9458C34.2064 38.9458 33 37.7394 33 36.2513C33 34.7632 34.2064 33.5568 35.6945 33.5568C37.1826 33.5568 38.389 34.7632 38.389 36.2513Z" fill="#00A76F"/>
<path d="M167.955 57.7835C167.955 59.2716 166.748 60.478 165.26 60.478C163.772 60.478 162.566 59.2716 162.566 57.7835C162.566 56.2954 163.772 55.089 165.26 55.089C166.748 55.089 167.955 56.2954 167.955 57.7835Z" fill="#00A76F"/>
<path d="M119.519 27.6945C119.519 29.1826 118.313 30.389 116.824 30.389C115.336 30.389 114.13 29.1826 114.13 27.6945C114.13 26.2064 115.336 25 116.824 25C118.313 25 119.519 26.2064 119.519 27.6945Z" fill="#00A76F"/>
<path d="M45.5992 51.1165C45.5992 53.6104 43.5774 55.6322 41.0834 55.6322C38.5895 55.6322 36.5677 53.6104 36.5677 51.1165C36.5677 48.6225 38.5895 46.6007 41.0834 46.6007C43.5774 46.6007 45.5992 48.6225 45.5992 51.1165Z" fill="#00A76F"/>
</g>
<path fill-rule="evenodd" clip-rule="evenodd" d="M86.3454 87.4629C83.0224 87.4629 80.3286 90.1567 80.3286 93.4797C80.3286 96.8027 83.0224 99.4965 86.3454 99.4965C89.6684 99.4965 92.3622 96.8027 92.3622 93.4797C92.3622 90.1567 89.6684 87.4629 86.3454 87.4629V87.4629Z" fill="#007867"/>
<path opacity="0.72" fill-rule="evenodd" clip-rule="evenodd" d="M86.3455 88.1631C89.2819 88.1631 91.6624 90.5436 91.6624 93.48C91.6624 96.4165 89.2819 98.7969 86.3455 98.7969C83.409 98.7969 81.0286 96.4165 81.0286 93.48C81.0311 90.5446 83.4101 88.1657 86.3455 88.1631Z" fill="#00A76F"/>
<path fill-rule="evenodd" clip-rule="evenodd" d="M83.8575 93.9188L83.5666 93.6349C83.5037 93.5774 83.468 93.4971 83.468 93.413C83.468 93.329 83.5037 93.2486 83.5666 93.1912L86.1193 90.6977C86.1782 90.6364 86.2605 90.6016 86.3467 90.6016C86.4328 90.6016 86.5151 90.6364 86.574 90.6977L89.1267 93.189C89.1884 93.2471 89.2232 93.3271 89.2232 93.4108C89.2232 93.4945 89.1884 93.5745 89.1267 93.6326L88.8358 93.9166C88.7762 93.9768 88.6942 94.0108 88.6084 94.0108C88.5227 94.0108 88.4407 93.9768 88.3811 93.9166L86.8718 92.3637V96.0484C86.8724 96.13 86.8396 96.2084 86.7807 96.2663C86.7218 96.3242 86.6416 96.3568 86.5581 96.3568H86.1375C85.963 96.3568 85.8216 96.2187 85.8216 96.0484V92.3682L84.3122 93.921C84.2523 93.9809 84.1701 94.0145 84.0844 94.0141C83.9986 94.0137 83.9168 93.9793 83.8575 93.9188Z" fill="#007867"/>
<path d="M42.5521 108.499C42.5521 108.499 45.3836 99.2159 42.1086 95.4975C39.6583 92.7158 36.8766 93.0484 35.6309 93.3922C34.979 93.5663 34.4362 94.0176 34.146 94.6267C33.71 95.566 33.7885 97.0907 36.8629 98.8709C42.009 101.851 42.3291 105.938 42.3291 105.938L42.5521 108.499Z" fill="#00A76F"/>
<path d="M42.6671 108.572C42.6671 108.572 39.3498 101.826 38.4392 101.97C38.0069 102.041 37.8076 102.468 37.7166 102.894C37.6048 103.447 37.668 104.021 37.8973 104.536C38.3682 105.62 39.6326 107.669 42.6671 108.572Z" fill="#00A76F"/>
<path d="M42.5684 108.572C42.5684 108.572 45.8845 101.826 46.7951 101.97C47.2286 102.041 47.4279 102.468 47.5176 102.894C47.6294 103.447 47.5663 104.021 47.337 104.536C46.8661 105.62 45.6004 107.669 42.5684 108.572Z" fill="#00A76F"/>
<path fill-rule="evenodd" clip-rule="evenodd" d="M35.9765 94.6775C35.9937 94.6226 36.0521 94.5921 36.107 94.6093L36.0759 94.7087C36.107 94.6093 36.107 94.6093 36.107 94.6093L36.1076 94.6095L36.109 94.6099L36.1141 94.6115L36.1329 94.6178C36.1494 94.6233 36.1734 94.6316 36.2045 94.6428C36.2666 94.6652 36.3569 94.6994 36.4708 94.7467C36.6986 94.8414 37.021 94.989 37.4015 95.201C38.1623 95.6251 39.157 96.308 40.0927 97.3436C41.9677 99.4187 43.5957 102.898 42.6563 108.516C42.6468 108.573 42.5932 108.611 42.5364 108.602C42.4797 108.592 42.4414 108.538 42.4509 108.482C43.38 102.925 41.7692 99.5098 39.9382 97.4833C39.0209 96.4682 38.0457 95.7986 37.3001 95.383C36.9273 95.1753 36.6122 95.0311 36.3909 94.9391C36.2802 94.8931 36.193 94.8601 36.1338 94.8388C36.1042 94.8281 36.0816 94.8203 36.0665 94.8153L36.0497 94.8097L36.0457 94.8084L36.0448 94.8081C35.99 94.7909 35.9593 94.7324 35.9765 94.6775Z" fill="#007867"/>
<path fill-rule="evenodd" clip-rule="evenodd" d="M41.038 95.586C41.0701 95.6337 41.0576 95.6984 41.0099 95.7306L41.0096 95.7308L41.0077 95.7321L40.9994 95.738C40.9919 95.7433 40.9806 95.7516 40.9661 95.7626C40.9372 95.7847 40.8958 95.8179 40.8469 95.8613C40.749 95.9485 40.6225 96.076 40.5073 96.2377C40.2772 96.5608 40.0974 97.0118 40.2674 97.5526C40.2847 97.6075 40.2542 97.6659 40.1993 97.6832C40.1444 97.7005 40.0859 97.67 40.0687 97.6151C39.8725 96.9911 40.0845 96.4723 40.3377 96.1168C40.4642 95.9392 40.6022 95.8002 40.7084 95.7057C40.7616 95.6583 40.8072 95.6219 40.8397 95.597C40.856 95.5846 40.869 95.5751 40.8782 95.5685L40.8889 95.5609L40.892 95.5588L40.8929 95.5582L40.8933 95.5579C40.8933 95.5579 40.8934 95.5579 40.9496 95.6412L40.8933 95.5579C40.941 95.5258 41.0058 95.5383 41.038 95.586Z" fill="#007867"/>
<path fill-rule="evenodd" clip-rule="evenodd" d="M36.9872 96.4074L36.9882 96.4064L36.9931 96.4016C36.9977 96.3972 37.0048 96.3905 37.0144 96.3819C37.0335 96.3647 37.0622 96.34 37.0995 96.3114C37.1741 96.2541 37.282 96.1816 37.4145 96.1209C37.6789 95.9999 38.0355 95.9279 38.4276 96.1088C38.4798 96.1329 38.5417 96.1101 38.5658 96.0579C38.5899 96.0056 38.5671 95.9438 38.5149 95.9197C38.0512 95.7057 37.6286 95.7938 37.3278 95.9315C37.1776 96.0003 37.0563 96.0819 36.9726 96.1462C36.9306 96.1785 36.8977 96.2066 36.8751 96.227C36.8637 96.2372 36.8549 96.2454 36.8488 96.2513L36.8416 96.2583L36.8396 96.2603L36.8389 96.261L36.8386 96.2613C36.8386 96.2613 36.8386 96.2614 36.9129 96.3344L36.8386 96.2613C36.7983 96.3023 36.7988 96.3684 36.8398 96.4087C36.8809 96.449 36.9468 96.4484 36.9872 96.4074Z" fill="#007867"/>
<path fill-rule="evenodd" clip-rule="evenodd" d="M40.2597 100.023L40.2602 100.022L40.2624 100.021L40.2718 100.017C40.2802 100.013 40.2929 100.007 40.3093 99.9993C40.3421 99.9844 40.3897 99.964 40.4479 99.9417C40.5648 99.897 40.722 99.846 40.8871 99.8185C41.0534 99.7908 41.2189 99.7884 41.3572 99.8327C41.4906 99.8755 41.6026 99.9625 41.6698 100.127C41.6915 100.18 41.7523 100.206 41.8056 100.184C41.8589 100.162 41.8844 100.102 41.8627 100.048C41.7704 99.8225 41.6085 99.6944 41.4208 99.6343C41.2379 99.5757 41.035 99.5826 40.8528 99.613C40.6693 99.6436 40.498 99.6995 40.3735 99.7471C40.3109 99.7711 40.2596 99.7931 40.2237 99.8093C40.2057 99.8175 40.1915 99.8241 40.1817 99.8288L40.1704 99.8343L40.1672 99.8359L40.1663 99.8363L40.166 99.8365C40.166 99.8365 40.1659 99.8365 40.2128 99.9295L40.166 99.8365C40.1146 99.8624 40.0939 99.9251 40.1198 99.9765C40.1457 100.028 40.2084 100.048 40.2597 100.023Z" fill="#007867"/>
<path fill-rule="evenodd" clip-rule="evenodd" d="M38.4048 103.167C38.4522 103.135 38.5171 103.147 38.5497 103.194L38.464 103.253L38.3782 103.312C38.3455 103.265 38.3575 103.2 38.4048 103.167ZM38.464 103.253C38.3782 103.312 38.3782 103.312 38.3782 103.312L38.4176 103.369C38.4433 103.406 38.4811 103.461 38.5294 103.53C38.626 103.669 38.7647 103.867 38.9332 104.105C39.2703 104.582 39.7269 105.221 40.2046 105.867C40.6821 106.512 41.1816 107.166 41.6045 107.672C41.8158 107.926 42.0092 108.144 42.172 108.306C42.2534 108.387 42.3284 108.456 42.3953 108.509C42.4602 108.56 42.5248 108.602 42.5846 108.621C42.6392 108.639 42.6981 108.61 42.7161 108.555C42.7341 108.5 42.7044 108.442 42.6498 108.424C42.6255 108.416 42.5841 108.392 42.5241 108.345C42.4661 108.299 42.3974 108.237 42.3192 108.159C42.1629 108.003 41.974 107.79 41.7644 107.539C41.3455 107.037 40.8488 106.387 40.3721 105.743C39.8955 105.099 39.4399 104.461 39.1034 103.985C38.9351 103.747 38.7967 103.549 38.7003 103.411C38.6521 103.342 38.6144 103.287 38.5888 103.251L38.5497 103.194C38.5497 103.194 38.5497 103.194 38.464 103.253Z" fill="#007867"/>
<path fill-rule="evenodd" clip-rule="evenodd" d="M38.0396 104.042C38.0396 103.984 38.0862 103.937 38.1437 103.937H38.9559C39.0135 103.937 39.0601 103.984 39.0601 104.042C39.0601 104.099 39.0135 104.146 38.9559 104.146H38.1437C38.0862 104.146 38.0396 104.099 38.0396 104.042Z" fill="#007867"/>
<path fill-rule="evenodd" clip-rule="evenodd" d="M39.0126 105.883C39.015 105.826 39.0636 105.781 39.1211 105.784L40.3955 105.839C40.453 105.841 40.4975 105.89 40.4951 105.947C40.4926 106.005 40.444 106.049 40.3865 106.047L39.1122 105.992C39.0547 105.989 39.0101 105.941 39.0126 105.883Z" fill="#007867"/>
<path fill-rule="evenodd" clip-rule="evenodd" d="M39.9138 104.308C39.9701 104.32 40.0062 104.375 39.9945 104.432L39.8562 105.096C39.8445 105.152 39.7893 105.188 39.733 105.176C39.6767 105.165 39.6405 105.109 39.6523 105.053L39.7905 104.389C39.8023 104.333 39.8574 104.297 39.9138 104.308Z" fill="#007867"/>
<path fill-rule="evenodd" clip-rule="evenodd" d="M41.2509 106.326C41.3084 106.328 41.3531 106.376 41.3507 106.434L41.3258 107.037C41.3234 107.094 41.2749 107.139 41.2174 107.137C41.1599 107.134 41.1153 107.086 41.1176 107.028L41.1426 106.425C41.1449 106.368 41.1934 106.323 41.2509 106.326Z" fill="#007867"/>
<path fill-rule="evenodd" clip-rule="evenodd" d="M46.686 103.194C46.7187 103.147 46.7836 103.135 46.8309 103.167C46.8782 103.2 46.8901 103.265 46.8574 103.312L46.7717 103.253L46.686 103.194ZM46.686 103.194C46.686 103.194 46.686 103.194 46.7717 103.253C46.8574 103.312 46.8574 103.312 46.8574 103.312L46.8179 103.369C46.7921 103.406 46.7543 103.461 46.7059 103.53C46.6091 103.669 46.4701 103.867 46.3013 104.105C45.9636 104.582 45.5063 105.221 45.0281 105.867C44.55 106.512 44.0501 107.166 43.6275 107.672C43.4163 107.926 43.2231 108.144 43.0607 108.306C42.9796 108.387 42.9048 108.456 42.8383 108.508C42.7737 108.56 42.7095 108.602 42.6501 108.621C42.5955 108.639 42.5365 108.61 42.5184 108.555C42.5002 108.501 42.5297 108.442 42.5843 108.424C42.6082 108.416 42.6493 108.392 42.7091 108.345C42.7669 108.299 42.8354 108.237 42.9134 108.159C43.0693 108.003 43.258 107.79 43.4675 107.539C43.8863 107.037 44.3834 106.387 44.8607 105.743C45.3377 105.099 45.7941 104.461 46.1312 103.985C46.2998 103.747 46.4385 103.549 46.5351 103.411C46.5834 103.342 46.6211 103.287 46.6468 103.25L46.686 103.194Z" fill="#007867"/>
<path fill-rule="evenodd" clip-rule="evenodd" d="M46.1751 104.042C46.1751 103.984 46.2218 103.937 46.2793 103.937H47.0915C47.149 103.937 47.1957 103.984 47.1957 104.042C47.1957 104.099 47.149 104.146 47.0915 104.146H46.2793C46.2218 104.146 46.1751 104.099 46.1751 104.042Z" fill="#007867"/>
<path fill-rule="evenodd" clip-rule="evenodd" d="M46.2226 105.883C46.2251 105.941 46.1805 105.989 46.123 105.992L44.8486 106.047C44.7912 106.049 44.7426 106.005 44.7401 105.947C44.7376 105.89 44.7822 105.841 44.8397 105.839L46.1141 105.784C46.1715 105.781 46.2201 105.826 46.2226 105.883Z" fill="#007867"/>
<path fill-rule="evenodd" clip-rule="evenodd" d="M45.3214 104.308C45.3777 104.297 45.4329 104.333 45.4446 104.389L45.5829 105.053C45.5946 105.109 45.5585 105.165 45.5021 105.176C45.4458 105.188 45.3906 105.152 45.3789 105.096L45.2406 104.432C45.2289 104.375 45.2651 104.32 45.3214 104.308Z" fill="#007867"/>
<path fill-rule="evenodd" clip-rule="evenodd" d="M43.9843 106.326C44.0418 106.323 44.0903 106.368 44.0927 106.425L44.1176 107.028C44.12 107.086 44.0753 107.134 44.0179 107.137C43.9604 107.139 43.9119 107.094 43.9095 107.037L43.8846 106.434C43.8822 106.376 43.9269 106.328 43.9843 106.326Z" fill="#007867"/>
<defs>
<linearGradient id="paint0_linear_1337_2891" x1="100.5" y1="150" x2="178.383" y2="10.5074" gradientUnits="userSpaceOnUse">
<stop/>
<stop offset="1" stop-opacity="0.01"/>
</linearGradient>
<linearGradient id="paint1_linear_1337_2891" x1="74.9283" y1="57.1828" x2="54.7461" y2="116.777" gradientUnits="userSpaceOnUse">
<stop stop-color="#00A66F"/>
<stop offset="1" stop-color="#007867"/>
</linearGradient>
</defs>
</svg>
