<svg width="14" height="14" viewBox="0 0 14 14" fill="none" xmlns="http://www.w3.org/2000/svg">
<path d="M11.375 7.33316L7.00001 11.6662L2.62501 7.33316C2.33644 7.05235 2.10914 6.71483 1.95742 6.34186C1.80569 5.96889 1.73284 5.56855 1.74344 5.16604C1.75405 4.76353 1.84787 4.36757 2.01902 4.00311C2.19017 3.63864 2.43493 3.31356 2.73788 3.04833C3.04083 2.7831 3.39542 2.58348 3.77932 2.46202C4.16321 2.34057 4.5681 2.29992 4.96848 2.34263C5.36886 2.38534 5.75605 2.51048 6.10569 2.71019C6.45533 2.90989 6.75982 3.17983 7.00001 3.50299C7.24124 3.18217 7.54609 2.9146 7.89549 2.71701C8.24488 2.51943 8.6313 2.39609 9.03056 2.35471C9.42981 2.31334 9.83331 2.35482 10.2158 2.47655C10.5983 2.59829 10.9515 2.79767 11.2534 3.0622C11.5553 3.32674 11.7993 3.65074 11.9703 4.01393C12.1412 4.37712 12.2353 4.77167 12.2467 5.17291C12.2581 5.57414 12.1866 5.97341 12.0366 6.34572C11.8866 6.71804 11.6614 7.05539 11.375 7.33666" stroke="black" stroke-opacity="0.5" stroke-width="1.5" stroke-linecap="round" stroke-linejoin="round"/>
</svg>
