<svg width="15" height="15" viewBox="0 0 15 15" fill="none" xmlns="http://www.w3.org/2000/svg">
<path d="M11.4775 2.89753C12.5102 3.93012 13.1009 5.32386 13.1246 6.78404C13.1482 8.24423 12.6031 9.65639 11.6044 10.7219L11.4775 10.8532L8.82566 13.5044C8.48918 13.8407 8.03746 14.0365 7.56201 14.0521C7.08656 14.0678 6.62292 13.9022 6.26503 13.5888L6.17503 13.5044L3.52253 10.8525C2.46764 9.79764 1.875 8.36689 1.875 6.87503C1.875 5.38318 2.46764 3.95243 3.52253 2.89753C4.57743 1.84264 6.00818 1.25 7.50003 1.25C8.99189 1.25 10.4226 1.84264 11.4775 2.89753ZM7.50003 5.00003C7.25381 5.00003 7.00999 5.04853 6.7825 5.14276C6.55502 5.23699 6.34832 5.3751 6.17421 5.54921C6.0001 5.72332 5.86199 5.93002 5.76776 6.1575C5.67353 6.38499 5.62503 6.62881 5.62503 6.87503C5.62503 7.12126 5.67353 7.36508 5.76776 7.59257C5.86199 7.82005 6.0001 8.02675 6.17421 8.20086C6.34832 8.37497 6.55502 8.51308 6.7825 8.60731C7.00999 8.70154 7.25381 8.75003 7.50003 8.75003C7.99732 8.75003 8.47423 8.55249 8.82586 8.20086C9.17749 7.84923 9.37503 7.37232 9.37503 6.87503C9.37503 6.37775 9.17749 5.90084 8.82586 5.54921C8.47423 5.19758 7.99732 5.00003 7.50003 5.00003Z" fill="black"/>
</svg>
