<svg width="58" height="34" viewBox="0 0 58 34" fill="none" xmlns="http://www.w3.org/2000/svg">
<rect x="0.25" y="0.25" width="57.5" height="33.5" rx="16.75" stroke="black" stroke-opacity="0.1" stroke-width="0.5"/>
<path d="M22 9H26L28 14L25.5 15.5C26.571 17.6715 28.3285 19.429 30.5 20.5L32 18L37 20V24C37 24.5304 36.7893 25.0391 36.4142 25.4142C36.0391 25.7893 35.5304 26 35 26C31.0993 25.763 27.4202 24.1065 24.6568 21.3432C21.8935 18.5798 20.237 14.9007 20 11C20 10.4696 20.2107 9.96086 20.5858 9.58579C20.9609 9.21071 21.4696 9 22 9Z" stroke="black" stroke-width="2" stroke-linecap="round" stroke-linejoin="round"/>
</svg>
