<svg width="12" height="12" viewBox="0 0 12 12" fill="none" xmlns="http://www.w3.org/2000/svg">
<g clip-path="url(#clip0_530_39024)">
<path d="M1.5 1.94078L1.5 10.0533C1.5018 10.3082 1.57043 10.5581 1.69904 10.7782C1.82765 10.9982 2.01175 11.1807 2.23294 11.3074C2.45413 11.434 2.70468 11.5005 2.95956 11.5C3.21445 11.4995 3.46476 11.4322 3.6855 11.3048L10.46 7.24678C10.6743 7.11696 10.8516 6.93411 10.9747 6.71586C11.0978 6.4976 11.1626 6.25131 11.1629 6.00073C11.1631 5.75015 11.0988 5.50373 10.9762 5.28523C10.8535 5.06673 10.6766 4.88353 10.4625 4.75328L3.693 0.698277C3.47269 0.569311 3.22237 0.500492 2.9671 0.498711C2.71182 0.496929 2.46056 0.562249 2.23848 0.688127C2.01639 0.814006 1.83128 0.996025 1.70167 1.21596C1.57207 1.43589 1.50252 1.68551 1.5 1.94078Z" fill="black"/>
</g>
<defs>
<clipPath id="clip0_530_39024">
<rect width="12" height="12" fill="white" transform="translate(0 12) rotate(-90)"/>
</clipPath>
</defs>
</svg>
