<svg width="25" height="24" viewBox="0 0 25 24" fill="none" xmlns="http://www.w3.org/2000/svg">
<path d="M9.75 15L15.75 9M10.75 9.5C10.75 9.77614 10.5261 10 10.25 10C9.97386 10 9.75 9.77614 9.75 9.5C9.75 9.22386 9.97386 9 10.25 9C10.5261 9 10.75 9.22386 10.75 9.5ZM15.75 14.5C15.75 14.7761 15.5261 15 15.25 15C14.9739 15 14.75 14.7761 14.75 14.5C14.75 14.2239 14.9739 14 15.25 14C15.5261 14 15.75 14.2239 15.75 14.5ZM3.75 12C3.75 13.1819 3.98279 14.3522 4.43508 15.4442C4.88738 16.5361 5.55031 17.5282 6.38604 18.364C7.22177 19.1997 8.21392 19.8626 9.30585 20.3149C10.3978 20.7672 11.5681 21 12.75 21C13.9319 21 15.1022 20.7672 16.1942 20.3149C17.2861 19.8626 18.2782 19.1997 19.114 18.364C19.9497 17.5282 20.6126 16.5361 21.0649 15.4442C21.5172 14.3522 21.75 13.1819 21.75 12C21.75 10.8181 21.5172 9.64778 21.0649 8.55585C20.6126 7.46392 19.9497 6.47177 19.114 5.63604C18.2782 4.80031 17.2861 4.13738 16.1942 3.68508C15.1022 3.23279 13.9319 3 12.75 3C11.5681 3 10.3978 3.23279 9.30585 3.68508C8.21392 4.13738 7.22177 4.80031 6.38604 5.63604C5.55031 6.47177 4.88738 7.46392 4.43508 8.55585C3.98279 9.64778 3.75 10.8181 3.75 12Z" stroke="black" stroke-width="2" stroke-linecap="round" stroke-linejoin="round"/>
</svg>
