<svg width="24" height="24" viewBox="0 0 24 24" fill="none" xmlns="http://www.w3.org/2000/svg">
                            <path d="M6.20105 18.7435C6.46524 17.9447 6.97458 17.2495 7.65662 16.7569C8.33867 16.2643 9.15869 15.9992 10 15.9995H14C14.8409 15.9992 15.6604 16.2639 16.3422 16.756C17.024 17.248 17.5334 17.9424 17.798 18.7405M12 12.9995C12.7956 12.9995 13.5587 12.6834 14.1213 12.1208C14.6839 11.5582 15 10.7952 15 9.99951C15 9.20386 14.6839 8.4408 14.1213 7.87819C13.5587 7.31558 12.7956 6.99951 12 6.99951C11.2044 6.99951 10.4413 7.31558 9.87868 7.87819C9.31607 8.4408 9 9.20386 9 9.99951C9 10.7952 9.31607 11.5582 9.87868 12.1208C10.4413 12.6834 11.2044 12.9995 12 12.9995ZM19.875 6.26959C20.575 6.66759 21.005 7.41259 21 8.21759V15.5016C21 16.3106 20.557 17.0566 19.842 17.4496L13.092 21.7196C12.7574 21.9033 12.3818 21.9996 12 21.9996C11.6182 21.9996 11.2426 21.9033 10.908 21.7196L4.158 17.4496C3.80817 17.2584 3.51612 16.9768 3.31241 16.6341C3.1087 16.2914 3.0008 15.9003 3 15.5016V8.21659C3 7.40759 3.443 6.66259 4.158 6.26959L10.908 2.28959C11.2525 2.09963 11.6396 2 12.033 2C12.4264 2 12.8135 2.09963 13.158 2.28959L19.908 6.26959H19.875Z" stroke="black" stroke-width="2" stroke-linecap="round" stroke-linejoin="round" />
                        </svg>