<svg width="8" height="8" viewBox="0 0 8 8" fill="none" xmlns="http://www.w3.org/2000/svg">
<g clip-path="url(#clip0_330_13146)">
<path d="M2.74771 2.44664L0.621044 2.75497L0.583377 2.76264C0.526357 2.77778 0.474376 2.80778 0.432741 2.84957C0.391107 2.89137 0.361312 2.94347 0.346398 3.00055C0.331484 3.05763 0.331986 3.11764 0.347853 3.17447C0.36372 3.23129 0.394383 3.28288 0.436711 3.32397L1.97738 4.82364L1.61404 6.94197L1.60971 6.97864C1.60622 7.03762 1.61847 7.09646 1.64519 7.14914C1.67192 7.20183 1.71217 7.24646 1.76182 7.27848C1.81147 7.31049 1.86874 7.32874 1.92776 7.33134C1.98678 7.33395 2.04543 7.32082 2.09771 7.29331L3.99971 6.29331L5.89738 7.29331L5.93071 7.30864C5.98573 7.33031 6.04553 7.33696 6.10396 7.32789C6.1624 7.31883 6.21737 7.29438 6.26324 7.25706C6.30911 7.21974 6.34423 7.17089 6.36499 7.11552C6.38575 7.06015 6.3914 7.00025 6.38138 6.94197L6.01771 4.82364L7.55904 3.32364L7.58504 3.29531C7.62218 3.24956 7.64654 3.19479 7.65562 3.13657C7.6647 3.07835 7.65818 3.01877 7.63674 2.96388C7.61529 2.909 7.57969 2.86079 7.53354 2.82415C7.48739 2.78751 7.43236 2.76375 7.37404 2.75531L5.24738 2.44664L4.29671 0.519974C4.2692 0.464152 4.22662 0.417146 4.17377 0.384276C4.12093 0.351405 4.05994 0.333984 3.99771 0.333984C3.93548 0.333984 3.87449 0.351405 3.82165 0.384276C3.7688 0.417146 3.72622 0.464152 3.69871 0.519974L2.74771 2.44664Z" fill="#159A46"/>
</g>
<defs>
<clipPath id="clip0_330_13146">
<rect width="8" height="8" fill="white"/>
</clipPath>
</defs>
</svg>
