<svg width="146" height="146" viewBox="0 0 146 146" fill="none" xmlns="http://www.w3.org/2000/svg">
<path d="M1 73C1 33.2355 33.2355 1 73 1V1C112.765 1 145 33.2355 145 73V73C145 112.765 112.765 145 73 145V145C33.2355 145 1 112.765 1 73V73Z" stroke="#919EAB" stroke-opacity="0.2" stroke-dasharray="3 2"/>
<circle cx="73" cy="73" r="64" fill="#919EAB" fill-opacity="0.08"/>
<path fill-rule="evenodd" clip-rule="evenodd" d="M73.5 59.6667C73.7652 59.6667 74.0195 59.7721 74.2071 59.9596C74.3946 60.1472 74.5 60.4015 74.5 60.6667V62.3334H76.1666C76.4318 62.3334 76.6862 62.4388 76.8737 62.6263C77.0613 62.8138 77.1666 63.0682 77.1666 63.3334C77.1666 63.5986 77.0613 63.853 76.8737 64.0405C76.6862 64.228 76.4318 64.3334 76.1666 64.3334H74.5V66.0001C74.5 66.2653 74.3946 66.5196 74.2071 66.7072C74.0195 66.8947 73.7652 67.0001 73.5 67.0001C73.2347 67.0001 72.9804 66.8947 72.7929 66.7072C72.6053 66.5196 72.5 66.2653 72.5 66.0001V64.3334H70.8333C70.5681 64.3334 70.3137 64.228 70.1262 64.0405C69.9387 63.853 69.8333 63.5986 69.8333 63.3334C69.8333 63.0682 69.9387 62.8138 70.1262 62.6263C70.3137 62.4388 70.5681 62.3334 70.8333 62.3334H72.5V60.6667C72.5 60.4015 72.6053 60.1472 72.7929 59.9596C72.9804 59.7721 73.2347 59.6667 73.5 59.6667Z" fill="#919EAB"/>
<path fill-rule="evenodd" clip-rule="evenodd" d="M70.5373 74.0001H76.4626C80.624 74.0001 82.7053 74.0001 84.2 73.0201C84.8449 72.5974 85.4003 72.0519 85.8346 71.4147C86.8333 69.9481 86.8333 67.9041 86.8333 63.8187C86.8333 59.7321 86.8333 57.6894 85.8346 56.2227C85.4003 55.5855 84.8449 55.0401 84.2 54.6174C83.24 53.9867 82.0373 53.7614 80.196 53.6814C79.3173 53.6814 78.5613 53.0281 78.3893 52.1814C78.2578 51.5612 77.9163 51.0054 77.4224 50.608C76.9285 50.2105 76.3126 49.9958 75.6786 50.0001H71.3213C70.004 50.0001 68.8693 50.9134 68.6106 52.1814C68.4386 53.0281 67.6826 53.6814 66.804 53.6814C64.964 53.7614 63.7613 53.9881 62.8 54.6174C62.1555 55.0401 61.6005 55.5856 61.1666 56.2227C60.1666 57.6894 60.1666 59.7321 60.1666 63.8187C60.1666 67.9041 60.1666 69.9467 61.1653 71.4147C61.5973 72.0494 62.152 72.5947 62.8 73.0201C64.2946 74.0001 66.376 74.0001 70.5373 74.0001ZM78.8333 63.3334C78.8333 64.7479 78.2714 66.1044 77.2712 67.1046C76.271 68.1048 74.9144 68.6667 73.5 68.6667C72.0855 68.6667 70.7289 68.1048 69.7287 67.1046C68.7285 66.1044 68.1666 64.7479 68.1666 63.3334C68.1666 61.9189 68.7285 60.5624 69.7287 59.5622C70.7289 58.562 72.0855 58.0001 73.5 58.0001C74.9144 58.0001 76.271 58.562 77.2712 59.5622C78.2714 60.5624 78.8333 61.9189 78.8333 63.3334ZM81.5 58.3334C81.2347 58.3334 80.9804 58.4388 80.7929 58.6263C80.6053 58.8138 80.5 59.0682 80.5 59.3334C80.5 59.5986 80.6053 59.853 80.7929 60.0405C80.9804 60.228 81.2347 60.3334 81.5 60.3334H82.8333C83.0985 60.3334 83.3529 60.228 83.5404 60.0405C83.7279 59.853 83.8333 59.5986 83.8333 59.3334C83.8333 59.0682 83.7279 58.8138 83.5404 58.6263C83.3529 58.4388 83.0985 58.3334 82.8333 58.3334H81.5Z" fill="#919EAB"/>
<path d="M40.73 95.12C39.978 95.12 39.368 94.996 38.9 94.748C38.436 94.5 38.096 94.136 37.88 93.656C37.668 93.176 37.562 92.586 37.562 91.886V86.324H38.714V92.054C38.714 92.754 38.888 93.278 39.236 93.626C39.584 93.974 40.082 94.148 40.73 94.148C41.166 94.148 41.536 94.072 41.84 93.92C42.148 93.768 42.382 93.538 42.542 93.23C42.706 92.918 42.788 92.526 42.788 92.054V86.324H43.904V92C43.904 92.668 43.794 93.234 43.574 93.698C43.354 94.162 43.01 94.516 42.542 94.76C42.078 95 41.474 95.12 40.73 95.12ZM45.7364 96.932V88.796H46.8404L46.8524 89.876C46.9244 89.748 47.0164 89.614 47.1284 89.474C47.2444 89.334 47.3844 89.204 47.5484 89.084C47.7164 88.964 47.9104 88.866 48.1304 88.79C48.3544 88.714 48.6084 88.676 48.8924 88.676C49.3884 88.676 49.8244 88.79 50.2004 89.018C50.5804 89.242 50.8764 89.586 51.0884 90.05C51.3004 90.514 51.4064 91.102 51.4064 91.814C51.4064 92.526 51.3024 93.128 51.0944 93.62C50.8904 94.108 50.5944 94.48 50.2064 94.736C49.8184 94.992 49.3504 95.12 48.8024 95.12C48.5264 95.12 48.2804 95.08 48.0644 95C47.8524 94.924 47.6664 94.824 47.5064 94.7C47.3504 94.572 47.2184 94.436 47.1104 94.292C47.0064 94.148 46.9204 94.01 46.8524 93.878V96.932H45.7364ZM48.5924 94.256C49.1044 94.256 49.5224 94.062 49.8464 93.674C50.1704 93.282 50.3324 92.674 50.3324 91.85C50.3324 91.142 50.1844 90.58 49.8884 90.164C49.5924 89.748 49.1604 89.54 48.5924 89.54C48.0164 89.54 47.5804 89.754 47.2844 90.182C46.9884 90.606 46.8404 91.162 46.8404 91.85C46.8404 92.294 46.9064 92.698 47.0384 93.062C47.1704 93.426 47.3664 93.716 47.6264 93.932C47.8864 94.148 48.2084 94.256 48.5924 94.256ZM54.4508 95.078C54.1148 95.078 53.8428 95.032 53.6348 94.94C53.4308 94.848 53.2728 94.724 53.1608 94.568C53.0528 94.412 52.9788 94.234 52.9388 94.034C52.9028 93.83 52.8848 93.62 52.8848 93.404V86.084H53.9768V93.296C53.9768 93.608 54.0368 93.842 54.1568 93.998C54.2808 94.154 54.4528 94.24 54.6728 94.256L55.0088 94.262V94.982C54.9168 95.01 54.8208 95.032 54.7208 95.048C54.6208 95.068 54.5308 95.078 54.4508 95.078ZM58.7086 95.12C58.1366 95.12 57.6366 94.998 57.2086 94.754C56.7846 94.506 56.4546 94.144 56.2186 93.668C55.9826 93.192 55.8646 92.61 55.8646 91.922C55.8646 91.274 55.9746 90.706 56.1946 90.218C56.4146 89.73 56.7366 89.352 57.1606 89.084C57.5846 88.812 58.1026 88.676 58.7146 88.676C59.2866 88.676 59.7826 88.802 60.2026 89.054C60.6226 89.302 60.9486 89.668 61.1806 90.152C61.4166 90.636 61.5346 91.226 61.5346 91.922C61.5346 92.554 61.4266 93.11 61.2106 93.59C60.9946 94.07 60.6766 94.446 60.2566 94.718C59.8406 94.986 59.3246 95.12 58.7086 95.12ZM58.7146 94.244C59.0826 94.244 59.3946 94.15 59.6506 93.962C59.9066 93.774 60.1006 93.504 60.2326 93.152C60.3686 92.8 60.4366 92.382 60.4366 91.898C60.4366 91.454 60.3766 91.056 60.2566 90.704C60.1406 90.348 59.9566 90.066 59.7046 89.858C59.4526 89.65 59.1226 89.546 58.7146 89.546C58.3386 89.546 58.0206 89.64 57.7606 89.828C57.5006 90.012 57.3026 90.28 57.1666 90.632C57.0346 90.984 56.9686 91.406 56.9686 91.898C56.9686 92.334 57.0266 92.73 57.1426 93.086C57.2626 93.442 57.4506 93.724 57.7066 93.932C57.9666 94.14 58.3026 94.244 58.7146 94.244ZM64.6795 95.12C64.2755 95.12 63.9195 95.05 63.6115 94.91C63.3075 94.766 63.0675 94.56 62.8915 94.292C62.7195 94.024 62.6335 93.7 62.6335 93.32C62.6335 92.632 62.8735 92.12 63.3535 91.784C63.8335 91.448 64.6035 91.268 65.6635 91.244L66.7675 91.214V90.728C66.7675 90.348 66.6535 90.048 66.4255 89.828C66.1975 89.604 65.8455 89.492 65.3695 89.492C65.0135 89.496 64.6995 89.58 64.4275 89.744C64.1555 89.908 63.9815 90.176 63.9055 90.548H62.9275C62.9515 90.144 63.0635 89.804 63.2635 89.528C63.4675 89.248 63.7535 89.036 64.1215 88.892C64.4895 88.748 64.9235 88.676 65.4235 88.676C65.9635 88.676 66.4115 88.752 66.7675 88.904C67.1275 89.056 67.3955 89.28 67.5715 89.576C67.7515 89.872 67.8415 90.236 67.8415 90.668V95H66.8935L66.8095 93.836C66.5735 94.32 66.2695 94.656 65.8975 94.844C65.5295 95.028 65.1235 95.12 64.6795 95.12ZM65.0095 94.322C65.2215 94.322 65.4295 94.284 65.6335 94.208C65.8415 94.132 66.0295 94.03 66.1975 93.902C66.3695 93.77 66.5075 93.624 66.6115 93.464C66.7155 93.3 66.7675 93.132 66.7675 92.96V91.898L65.8495 91.916C65.3735 91.924 64.9775 91.972 64.6615 92.06C64.3455 92.148 64.1075 92.286 63.9475 92.474C63.7875 92.662 63.7075 92.908 63.7075 93.212C63.7075 93.56 63.8295 93.832 64.0735 94.028C64.3175 94.224 64.6295 94.322 65.0095 94.322ZM71.8343 95.12C71.0263 95.12 70.3863 94.844 69.9143 94.292C69.4463 93.74 69.2123 92.934 69.2123 91.874C69.2123 91.23 69.3063 90.668 69.4943 90.188C69.6823 89.708 69.9643 89.336 70.3403 89.072C70.7163 88.808 71.1843 88.676 71.7443 88.676C72.0443 88.676 72.3083 88.714 72.5363 88.79C72.7643 88.866 72.9623 88.962 73.1303 89.078C73.2983 89.194 73.4343 89.314 73.5383 89.438C73.6463 89.562 73.7263 89.676 73.7783 89.78V86.084H74.9003V95H74.0483L73.9283 93.728C73.8883 93.848 73.8243 93.988 73.7363 94.148C73.6483 94.304 73.5243 94.458 73.3643 94.61C73.2083 94.758 73.0043 94.88 72.7523 94.976C72.5003 95.072 72.1943 95.12 71.8343 95.12ZM72.0323 94.268C72.6563 94.268 73.1023 94.078 73.3703 93.698C73.6423 93.314 73.7783 92.688 73.7783 91.82C73.7743 91.336 73.7143 90.924 73.5983 90.584C73.4823 90.244 73.2983 89.986 73.0463 89.81C72.7983 89.63 72.4663 89.54 72.0503 89.54C71.5423 89.54 71.1283 89.722 70.8083 90.086C70.4883 90.45 70.3283 91.028 70.3283 91.82C70.3283 92.596 70.4723 93.198 70.7603 93.626C71.0483 94.054 71.4723 94.268 72.0323 94.268ZM79.6504 96.932V88.796H80.7544L80.7664 89.876C80.8384 89.748 80.9304 89.614 81.0424 89.474C81.1584 89.334 81.2984 89.204 81.4624 89.084C81.6304 88.964 81.8244 88.866 82.0444 88.79C82.2684 88.714 82.5224 88.676 82.8064 88.676C83.3024 88.676 83.7384 88.79 84.1144 89.018C84.4944 89.242 84.7904 89.586 85.0024 90.05C85.2144 90.514 85.3204 91.102 85.3204 91.814C85.3204 92.526 85.2164 93.128 85.0084 93.62C84.8044 94.108 84.5084 94.48 84.1204 94.736C83.7324 94.992 83.2644 95.12 82.7164 95.12C82.4404 95.12 82.1944 95.08 81.9784 95C81.7664 94.924 81.5804 94.824 81.4204 94.7C81.2644 94.572 81.1324 94.436 81.0244 94.292C80.9204 94.148 80.8344 94.01 80.7664 93.878V96.932H79.6504ZM82.5064 94.256C83.0184 94.256 83.4364 94.062 83.7604 93.674C84.0844 93.282 84.2464 92.674 84.2464 91.85C84.2464 91.142 84.0984 90.58 83.8024 90.164C83.5064 89.748 83.0744 89.54 82.5064 89.54C81.9304 89.54 81.4944 89.754 81.1984 90.182C80.9024 90.606 80.7544 91.162 80.7544 91.85C80.7544 92.294 80.8204 92.698 80.9524 93.062C81.0844 93.426 81.2804 93.716 81.5404 93.932C81.8004 94.148 82.1224 94.256 82.5064 94.256ZM86.7989 95V86.084H87.8789V89.708C87.9829 89.536 88.1229 89.376 88.2989 89.228C88.4749 89.076 88.6889 88.954 88.9409 88.862C89.1929 88.766 89.4849 88.718 89.8169 88.718C90.2209 88.718 90.5869 88.794 90.9149 88.946C91.2429 89.094 91.5029 89.306 91.6949 89.582C91.8869 89.858 91.9829 90.186 91.9829 90.566V95H90.8729V90.788C90.8729 90.416 90.7449 90.13 90.4889 89.93C90.2369 89.726 89.9069 89.624 89.4989 89.624C89.2229 89.624 88.9629 89.67 88.7189 89.762C88.4749 89.85 88.2769 89.986 88.1249 90.17C87.9769 90.35 87.9029 90.58 87.9029 90.86V95H86.7989ZM96.1969 95.12C95.6249 95.12 95.1249 94.998 94.6969 94.754C94.2729 94.506 93.9429 94.144 93.7069 93.668C93.4709 93.192 93.3529 92.61 93.3529 91.922C93.3529 91.274 93.4629 90.706 93.6829 90.218C93.9029 89.73 94.2249 89.352 94.6489 89.084C95.0729 88.812 95.5909 88.676 96.2029 88.676C96.7749 88.676 97.2709 88.802 97.6909 89.054C98.1109 89.302 98.4369 89.668 98.6689 90.152C98.9049 90.636 99.0229 91.226 99.0229 91.922C99.0229 92.554 98.9149 93.11 98.6989 93.59C98.4829 94.07 98.1649 94.446 97.7449 94.718C97.3289 94.986 96.8129 95.12 96.1969 95.12ZM96.2029 94.244C96.5709 94.244 96.8829 94.15 97.1389 93.962C97.3949 93.774 97.5889 93.504 97.7209 93.152C97.8569 92.8 97.9249 92.382 97.9249 91.898C97.9249 91.454 97.8649 91.056 97.7449 90.704C97.6289 90.348 97.4449 90.066 97.1929 89.858C96.9409 89.65 96.6109 89.546 96.2029 89.546C95.8269 89.546 95.5089 89.64 95.2489 89.828C94.9889 90.012 94.7909 90.28 94.6549 90.632C94.5229 90.984 94.4569 91.406 94.4569 91.898C94.4569 92.334 94.5149 92.73 94.6309 93.086C94.7509 93.442 94.9389 93.724 95.1949 93.932C95.4549 94.14 95.7909 94.244 96.2029 94.244ZM102.491 95.03C102.063 95.03 101.731 94.972 101.495 94.856C101.259 94.74 101.093 94.568 100.997 94.34C100.905 94.112 100.859 93.832 100.859 93.5V89.606H99.8508V88.796H100.889L101.159 86.99H101.975V88.79H103.373V89.606H101.975V93.464C101.975 93.684 101.997 93.846 102.041 93.95C102.089 94.05 102.167 94.114 102.275 94.142C102.383 94.17 102.535 94.184 102.731 94.184H103.409V94.928C103.333 94.956 103.217 94.98 103.061 95C102.909 95.02 102.719 95.03 102.491 95.03ZM107.201 95.12C106.629 95.12 106.129 94.998 105.701 94.754C105.277 94.506 104.947 94.144 104.711 93.668C104.475 93.192 104.357 92.61 104.357 91.922C104.357 91.274 104.467 90.706 104.687 90.218C104.907 89.73 105.229 89.352 105.653 89.084C106.077 88.812 106.595 88.676 107.207 88.676C107.779 88.676 108.275 88.802 108.695 89.054C109.115 89.302 109.441 89.668 109.673 90.152C109.909 90.636 110.027 91.226 110.027 91.922C110.027 92.554 109.919 93.11 109.703 93.59C109.487 94.07 109.169 94.446 108.749 94.718C108.333 94.986 107.817 95.12 107.201 95.12ZM107.207 94.244C107.575 94.244 107.887 94.15 108.143 93.962C108.399 93.774 108.593 93.504 108.725 93.152C108.861 92.8 108.929 92.382 108.929 91.898C108.929 91.454 108.869 91.056 108.749 90.704C108.633 90.348 108.449 90.066 108.197 89.858C107.945 89.65 107.615 89.546 107.207 89.546C106.831 89.546 106.513 89.64 106.253 89.828C105.993 90.012 105.795 90.28 105.659 90.632C105.527 90.984 105.461 91.406 105.461 91.898C105.461 92.334 105.519 92.73 105.635 93.086C105.755 93.442 105.943 93.724 106.199 93.932C106.459 94.14 106.795 94.244 107.207 94.244Z" fill="#919EAB"/>
</svg>
