<svg width="25" height="24" viewBox="0 0 25 24" fill="none" xmlns="http://www.w3.org/2000/svg">
<path d="M12.25 7V12L15.25 15M3.25 12C3.25 13.1819 3.48279 14.3522 3.93508 15.4442C4.38738 16.5361 5.05031 17.5282 5.88604 18.364C6.72177 19.1997 7.71392 19.8626 8.80585 20.3149C9.89778 20.7672 11.0681 21 12.25 21C13.4319 21 14.6022 20.7672 15.6942 20.3149C16.7861 19.8626 17.7782 19.1997 18.614 18.364C19.4497 17.5282 20.1126 16.5361 20.5649 15.4442C21.0172 14.3522 21.25 13.1819 21.25 12C21.25 9.61305 20.3018 7.32387 18.614 5.63604C16.9261 3.94821 14.6369 3 12.25 3C9.86305 3 7.57387 3.94821 5.88604 5.63604C4.19821 7.32387 3.25 9.61305 3.25 12Z" stroke="black" stroke-width="2" stroke-linecap="round" stroke-linejoin="round"/>
</svg>
